<?xml version="1.0" encoding="UTF-8"?>
<svg width="24px" height="24px" viewBox="0 0 24 24" version="1.1" xmlns="http://www.w3.org/2000/svg" xmlns:xlink="http://www.w3.org/1999/xlink">
    <title>79CFCD4E-D116-4055-AB4F-E08858CE4EA7</title>
    <defs>
        <path d="M11.9470257,2 C12.995655,2 13.9681772,2.54753799 14.5148931,3.44887293 L22.9930162,17.6026836 C23.5260538,18.5257831 23.5292363,19.662404 23.0013765,20.5884739 C22.4735166,21.5145439 21.4938982,22.0909683 20.4170257,22.102744 L3.46603518,22.102744 C2.4001532,22.0909683 1.42053484,21.5145439 0.892674958,20.5884739 C0.364815078,19.662404 0.367997619,18.5257831 0.909158286,17.5888729 L9.37915829,3.44887293 C9.9258742,2.54753799 10.8983964,2 11.9470257,2 Z M11.9470257,4 C11.598249,4 11.2747302,4.1817132 11.0932202,4.47940787 L2.63301624,18.6028044 C2.45533705,18.9105042 2.45427621,19.2893779 2.6302295,19.5980678 C2.80618279,19.9067578 3.13272225,20.0988993 3.47702571,20.1028044 L20.4060352,20.1028044 C20.7613292,20.0988993 21.0878686,19.9067578 21.2638219,19.5980678 C21.4397752,19.2893779 21.4387144,18.9105042 21.2691583,18.6166151 L12.8020257,4.481372 C12.6207429,4.18251266 12.2965688,4 11.9470257,4 Z M11.2399189,15.3956372 C11.6304432,15.0051129 12.2636082,15.0051129 12.6541325,15.3956372 C13.0446568,15.7861615 13.0446568,16.4193265 12.6541325,16.8098508 C12.2636082,17.2003751 11.6304432,17.2003751 11.2399189,16.8098508 C10.8493946,16.4193265 10.8493946,15.7861615 11.2399189,15.3956372 Z M11.9470257,8.102744 C12.4993105,8.102744 12.9470257,8.55045925 12.9470257,9.102744 L12.9470257,9.102744 L12.9470257,13.102744 C12.9470257,13.6550288 12.4993105,14.102744 11.9470257,14.102744 C11.394741,14.102744 10.9470257,13.6550288 10.9470257,13.102744 L10.9470257,13.102744 L10.9470257,9.102744 C10.9470257,8.55045925 11.394741,8.102744 11.9470257,8.102744 Z" id="path-1"></path>
    </defs>
    <g id="📸-Icon" stroke="current" stroke-width="1" fill="current" fill-rule="evenodd">
        <g id="icon/alert-triangle">
            <rect id="Rectangle" x="0" y="0" width="24" height="24"></rect>
            <mask id="mask-2" fill="white">
                <use xlink:href="#path-1"></use>
            </mask>
            <use id="Combined-Shape" fill="#C78500" xlink:href="#path-1"></use>
        </g>
    </g>
</svg>