<?xml version="1.0" encoding="UTF-8"?>
<svg width="24px" height="24px" viewBox="0 0 24 24" version="1.1" xmlns="http://www.w3.org/2000/svg" xmlns:xlink="http://www.w3.org/1999/xlink">
    <title>8A39D12B-AE00-468F-81C4-7D75827225E4</title>
    <defs>
        <path d="M12,1 C18.0751322,1 23,5.92486775 23,12 C23,18.0751322 18.0751322,23 12,23 C5.92486775,23 1,18.0751322 1,12 C1,5.92486775 5.92486775,1 12,1 Z M12,3 C7.02943725,3 3,7.02943725 3,12 C3,16.9705627 7.02943725,21 12,21 C16.9705627,21 21,16.9705627 21,12 C21,7.02943725 16.9705627,3 12,3 Z M12.7783383,15.1500189 C13.2067949,15.5784755 13.2067949,16.273141 12.7783383,16.7015977 C12.3498816,17.1300543 11.6552162,17.1300543 11.2267595,16.7015977 C10.7983029,16.273141 10.7983029,15.5784755 11.2267595,15.1500189 C11.6552162,14.7215623 12.3498816,14.7215623 12.7783383,15.1500189 Z M12.0025489,7.14875345 C12.6084781,7.14875345 13.0996808,7.63995611 13.0996808,8.2458853 L13.0996808,12.6344127 C13.0996808,13.2403419 12.6084781,13.7315446 12.0025489,13.7315446 C11.3966197,13.7315446 10.905417,13.2403419 10.905417,12.6344127 L10.905417,8.2458853 C10.905417,7.63995611 11.3966197,7.14875345 12.0025489,7.14875345 Z" id="path-2"></path>
    </defs>
    <g id="circle" stroke="none" stroke-width="1" fill="none" fill-rule="evenodd">
        <g id="icon/circle">
            <rect id="Circle" x="0" y="0" width="24" height="24"></rect>
            <mask id="circle" fill="white">
                <use xlink:href="#circle"></use>
            </mask>
            <use id="Combined-Shape" fill="#E32837" xlink:href="#path-2"></use>
        </g>
    </g>
</svg>